PathFileType	4	(X/Y/Z)	/Users/itak/Documents/Research/Walk-IL/dataset/trc/00505_00183.trc
DataRate	CameraRate	NumFrames	NumMarkers	Units	OrigDataRate	OrigDataStartFrame	OrigNumFrames
100.000000	100.000000	4	53	mm	100.000000	138	369
Frame#	Time	RPSI			LPSI			L3			STRN			T10			C7			CLAV			RBAK			LBAK			LSHO			LUPA			LAEL			LAOL			LWTS			LWPS			LFRA			LIFD			LHPS			LHTS			RSHO			RUPA			RAEL			RAOL			RWTS			RWPS			RFRA			RIFD			RHTS			RHPS			RBHD			LFHD			RFHD			LBHD			LHIP			RHIP			RASI			LASI			LKNE			LTHI			LANK			LTIP			LTOE			LMT1			LMT5			LHEE			RKNE			RTHI			RANK			RTIP			RTOE			RMT1			RMT5			RHEE			
		X1	Y1	Z1	X2	Y2	Z2	X3	Y3	Z3	X4	Y4	Z4	X5	Y5	Z5	X6	Y6	Z6	X7	Y7	Z7	X8	Y8	Z8	X9	Y9	Z9	X10	Y10	Z10	X11	Y11	Z11	X12	Y12	Z12	X13	Y13	Z13	X14	Y14	Z14	X15	Y15	Z15	X16	Y16	Z16	X17	Y17	Z17	X18	Y18	Z18	X19	Y19	Z19	X20	Y20	Z20	X21	Y21	Z21	X22	Y22	Z22	X23	Y23	Z23	X24	Y24	Z24	X25	Y25	Z25	X26	Y26	Z26	X27	Y27	Z27	X28	Y28	Z28	X29	Y29	Z29	X30	Y30	Z30	X31	Y31	Z31	X32	Y32	Z32	X33	Y33	Z33	X34	Y34	Z34	X35	Y35	Z35	X36	Y36	Z36	X37	Y37	Z37	X38	Y38	Z38	X39	Y39	Z39	X40	Y40	Z40	X41	Y41	Z41	X42	Y42	Z42	X43	Y43	Z43	X44	Y44	Z44	X45	Y45	Z45	X46	Y46	Z46	X47	Y47	Z47	X48	Y48	Z48	X49	Y49	Z49	X50	Y50	Z50	X51	Y51	Z51	X52	Y52	Z52	X53	Y53	Z53	

139	1.38	-839.5827026367188	926.7987060546875	-300.7343139648438	-790.9246215820312	930.0599975585938	-414.9189147949219	-790.7589721679688	1006.88916015625	-374.459716796875	-561.44091796875	1108.33447265625	-261.32421875	-768.7846069335938	1103.358032226562	-382.6853332519531	-691.6077270507812	1319.502563476562	-335.3181762695312	-576.3626708984375	1209.711669921875	-264.4048461914062	-800.3226318359375	1211.44873046875	-310.2592468261719	-673.1267700195312	1273.752319335938	-431.3705749511719	-543.501220703125	1299.518920898438	-432.0049438476562	-509.9393310546875	1168.921020507812	-471.3897705078125	-471.3403015136719	999.684326171875	-419.911865234375	-543.6231689453125	934.7645874023438	-444.8840942382812	-440.673583984375	1029.097290039062	-223.5131988525391	-404.6546936035156	940.8829345703125	-227.0057220458984	-445.8802490234375	988.3524169921875	-356.8407287597656	-393.764892578125	984.3658447265625	-78.63570404052734	-381.5228881835938	949.5618286132812	-174.909912109375	-391.8146362304688	1012.887084960938	-160.0441436767578	-729.4849243164062	1296.272216796875	-181.8130187988281	-795.6901245117188	1250.353393554688	-164.6993408203125	-958.5134887695312	1056.058227539062	-215.4683380126953	-958.6419677734375	1047.842041015625	-281.3287353515625	-943.8030395507812	845.4159545898438	-144.8646850585938	-1029.552978515625	852.7670288085938	-173.8476867675781	-984.99365234375	1007.846862792969	-212.4678802490234	-1003.450622558594	693.3550415039062	-151.6349029541016	-986.1901245117188	756.7765502929688	-123.1498870849609	-1043.143920898438	779.7305908203125	-159.1559600830078	-714.3095703125	1446.698486328125	-232.5041961669922	-543.6505126953125	1529.37646484375	-296.2981262207031	-607.1151733398438	1519.53857421875	-186.3568572998047	-647.1611328125	1452.796997070312	-376.9250183105469	-667.2880249023438	834.7915649414062	-508.8672790527344	-789.3307495117188	824.9976806640625	-146.2753753662109	-674.43603515625	846.86962890625	-185.4484405517578	-592.8513793945312	844.3447265625	-412.5590209960938	-810.7269897460938	442.3013000488281	-530.0136108398438	-731.9537353515625	578.93017578125	-512.0042114257812	-1044.2626953125	70.28250885009766	-616.6481323242188	-896.380615234375	317.1699523925781	-568.8787841796875	-904.1915283203125	38.71471405029297	-478.4936828613281	-982.895263671875	46.59677124023438	-482.4810485839844	-943.2445678710938	42.57181167602539	-579.5293579101562	-1115.462768554688	83.74856567382812	-585.1998291015625	-584.6663208007812	505.4634094238281	-121.7766342163086	-731.1974487304688	719.054443359375	-125.3610305786133	-759.571044921875	136.3257598876953	-228.7088623046875	-592.1143798828125	377.1173095703125	-134.6404876708984	-585.0302124023438	61.46054458618164	-167.4747009277344	-612.9605102539062	84.86894226074219	-232.6756591796875	-683.5621337890625	87.69316101074219	-162.9300231933594	-778.7235107421875	150.7362518310547	-295.3145446777344	
140	1.39	-828.4619750976562	927.094482421875	-293.5934448242188	-780.117431640625	930.0952758789062	-407.9146423339844	-779.0808715820312	1007.25390625	-367.4331970214844	-550.3051147460938	1107.949462890625	-253.2102203369141	-756.9889526367188	1103.686401367188	-375.788330078125	-680.19775390625	1319.510986328125	-327.1965026855469	-565.4842529296875	1209.276245117188	-255.9024047851562	-789.1288452148438	1211.3173828125	-303.6567687988281	-660.8060913085938	1274.268798828125	-423.2961730957031	-531.0757446289062	1300.261474609375	-422.5021362304688	-497.5340881347656	1169.817260742188	-462.7142028808594	-460.1713256835938	999.9571533203125	-412.5305480957031	-532.4884033203125	935.5701293945312	-438.7417297363281	-430.7866516113281	1027.342895507812	-215.6875457763672	-395.8126831054688	938.7567138671875	-219.6813049316406	-435.3108215332031	987.903564453125	-349.394775390625	-386.0335388183594	980.7833251953125	-70.78982543945312	-373.0285034179688	946.6244506835938	-167.3539581298828	-382.6629028320312	1009.956848144531	-151.86865234375	-719.2527465820312	1295.341186523438	-174.0064849853516	-785.5435791015625	1249.527587890625	-157.832275390625	-948.7967529296875	1057.3115234375	-211.8062133789062	-948.4109497070312	1048.559448242188	-277.6343688964844	-931.0869750976562	848.2326049804688	-137.1392517089844	-1016.932861328125	854.5953979492188	-166.2207946777344	-974.4776611328125	1009.08447265625	-208.1680603027344	-990.6609497070312	695.8414306640625	-140.8019409179688	-973.2904052734375	759.8129272460938	-113.5226516723633	-1030.4345703125	782.047607421875	-149.8416137695312	-703.280517578125	1446.664794921875	-223.5365600585938	-532.8397216796875	1529.059692382812	-288.12060546875	-595.908447265625	1519.59130859375	-177.9520568847656	-636.6087036132812	1452.30908203125	-368.1842956542969	-656.8108520507812	834.4713745117188	-501.8592529296875	-778.1755981445312	825.0746459960938	-139.2891540527344	-663.1693725585938	846.8598022460938	-178.3702087402344	-582.0896606445312	844.0950317382812	-405.6840209960938	-800.8515014648438	442.5385437011719	-523.0206909179688	-721.409912109375	578.6879272460938	-504.7222900390625	-1042.087158203125	75.42575073242188	-616.18994140625	-888.2347412109375	318.7054443359375	-563.6712646484375	-904.1846923828125	38.6744270324707	-478.5710144042969	-981.9111328125	47.62329483032227	-482.1314697265625	-942.3250732421875	43.21252822875977	-579.5280151367188	-1112.558837890625	91.30390167236328	-584.3068237304688	-577.7404174804688	502.4042663574219	-116.1439666748047	-721.279052734375	718.2008666992188	-118.5406875610352	-751.4951782226562	133.6405029296875	-228.2756500244141	-585.1075439453125	373.66015625	-130.2812805175781	-578.4376831054688	57.72372817993164	-165.1089782714844	-605.0311889648438	81.39767456054688	-230.5063018798828	-676.6663818359375	84.21218109130859	-161.8296356201172	-769.6175537109375	148.5517578125	-295.0385131835938	
141	1.4	-816.9091186523438	927.719970703125	-286.220947265625	-768.82568359375	930.4249267578125	-400.6332397460938	-767.001220703125	1007.882141113281	-360.0693359375	-538.91162109375	1107.834106445312	-244.7334442138672	-744.8678588867188	1104.301391601562	-368.5740661621094	-668.5194091796875	1319.783569335938	-318.7569580078125	-554.3150634765625	1209.112426757812	-247.0649566650391	-777.6290893554688	1211.477294921875	-296.6564331054688	-648.1587524414062	1275.0400390625	-414.8593444824219	-518.335205078125	1301.260620117188	-412.6250305175781	-484.9949035644531	1170.985717773438	-453.890625	-449.0194702148438	1000.238952636719	-405.4122009277344	-521.662109375	936.7245483398438	-432.8404846191406	-420.2706604003906	1024.609130859375	-208.0986633300781	-386.9017944335938	935.4863891601562	-213.0122833251953	-424.6474609375	987.0574951171875	-342.2568359375	-377.4915161132812	975.59033203125	-63.5331916809082	-364.254150390625	942.2775268554688	-160.4908142089844	-372.7857055664062	1005.596984863281	-144.2013549804688	-708.6406860351562	1294.686157226562	-165.8462066650391	-774.9252319335938	1248.862182617188	-150.5259094238281	-938.2612915039062	1058.480834960938	-207.3779296875	-937.512451171875	1049.185913085938	-273.1897888183594	-916.9097290039062	850.9842529296875	-128.7807312011719	-1002.926574707031	856.1896362304688	-157.781494140625	-962.981201171875	1010.21240234375	-202.9483184814453	-976.1433715820312	698.2283935546875	-128.9635162353516	-958.7390747070312	762.8126220703125	-103.0315475463867	-1016.1826171875	784.1943359375	-139.5789794921875	-692.0543212890625	1446.914306640625	-214.3288116455078	-521.8599243164062	1529.013061523438	-279.7860717773438	-584.4955444335938	1519.958984375	-169.3714294433594	-625.902099609375	1452.044067382812	-359.2208862304688	-645.778564453125	834.4181518554688	-494.4796752929688	-766.8137817382812	825.4151611328125	-132.0452728271484	-651.6618041992188	847.0962524414062	-170.8649139404297	-570.9476928710938	844.0639038085938	-398.2991943359375	-789.9905395507812	442.5530090332031	-515.5487670898438	-710.09765625	578.535400390625	-497.2315979003906	-1039.263061523438	81.15908050537109	-615.7057495117188	-879.0162353515625	320.2648620605469	-558.205078125	-904.3192138671875	38.73130416870117	-478.7860412597656	-980.7399291992188	48.83270645141602	-481.8012084960938	-941.2647094726562	43.92294692993164	-579.5695190429688	-1108.7763671875	99.68665313720703	-583.3267822265625	-571.6158447265625	498.7514343261719	-111.1292037963867	-711.3590698242188	717.2776489257812	-111.6484680175781	-744.6165771484375	130.6700439453125	-229.1232604980469	-579.1138305664062	369.5402221679688	-126.777961730957	-573.279296875	53.85297775268555	-163.9886016845703	-598.3313598632812	77.480712890625	-229.5324401855469	-670.997314453125	80.39754486083984	-162.0476531982422	-761.6254272460938	146.1685791015625	-296.0387268066406	
142	1.41	-804.9703369140625	928.6259155273438	-278.6227722167969	-757.0797729492188	930.9925537109375	-393.0755004882812	-754.5648803710938	1008.757080078125	-352.388427734375	-527.2659912109375	1107.916381835938	-235.8965606689453	-732.4405517578125	1105.179565429688	-361.0409851074219	-656.55029296875	1320.280883789062	-310.0022888183594	-542.841064453125	1209.1591796875	-237.8955993652344	-765.8236083984375	1211.909545898438	-289.2509765625	-635.1909790039062	1276.026733398438	-406.0500183105469	-505.2874450683594	1302.4306640625	-402.3780212402344	-472.3281860351562	1172.3564453125	-444.9335327148438	-437.9070739746094	1000.468933105469	-398.59130859375	-511.1651916503906	938.1913452148438	-427.2153625488281	-409.1640319824219	1020.811706542969	-200.8280944824219	-377.9664306640625	931.0299682617188	-207.0797882080078	-413.9155883789062	985.7489013671875	-335.4757995605469	-368.124755859375	968.76171875	-56.96873092651367	-355.2259216308594	936.4851684570312	-154.4336853027344	-362.2020568847656	999.7427978515625	-137.1711120605469	-697.6220703125	1294.266479492188	-157.3204956054688	-763.8289184570312	1248.33056640625	-142.7467956542969	-926.8904418945312	1059.457763671875	-202.0535736083984	-925.9912719726562	1049.629760742188	-267.85986328125	-901.1748657226562	853.5528564453125	-119.8452987670898	-987.4659423828125	857.4265747070312	-148.4559478759766	-950.501953125	1011.124206542969	-196.7087097167969	-959.7169799804688	700.402587890625	-116.1366806030273	-942.3690795898438	765.6573486328125	-91.71397399902344	-1000.269653320312	786.0442504882812	-128.3107452392578	-680.6271362304688	1447.383544921875	-204.9080200195312	-510.710693359375	1529.188232421875	-271.3240356445312	-572.8848266601562	1520.601440429688	-160.6483459472656	-615.0322265625	1451.926635742188	-350.0630187988281	-634.229736328125	834.607177734375	-486.7559509277344	-755.2269897460938	825.9613037109375	-124.5536041259766	-639.9132080078125	847.5357666015625	-162.9657745361328	-559.4625244140625	844.2210693359375	-390.4435729980469	-777.9688720703125	442.1896667480469	-507.5748291015625	-697.9409790039062	578.399658203125	-489.5003356933594	-1035.62451171875	87.50674438476562	-615.1491088867188	-868.584228515625	321.7392883300781	-552.4596557617188	-904.6082763671875	38.83369064331055	-479.1310729980469	-979.3280029296875	50.23902130126953	-481.4997253417969	-940.001708984375	44.71467971801758	-579.6483154296875	-1103.896240234375	108.9062805175781	-582.1926879882812	-566.3397216796875	494.4960632324219	-106.7820434570312	-701.4243774414062	716.2316284179688	-104.6733627319336	-738.9983520507812	127.3806304931641	-231.1388244628906	-574.1921997070312	364.7344970703125	-124.1635513305664	-569.5401611328125	50.12184143066406	-163.9888153076172	-592.8759155273438	73.22521209716797	-229.6328582763672	-666.5320434570312	76.37070465087891	-163.4384307861328	-754.8538818359375	143.5064849853516	-298.2166137695312	
